<svg width="1258" height="104" viewBox="0 0 1258 104" fill="none" xmlns="http://www.w3.org/2000/svg">
<path d="M1181 102.006H1216.76V26.1444H1258V2.00715L1139.76 2.00715V26.1444H1181V102.006ZM1023.24 102.006H1126.49V77.8689H1057.99V62.7307H1124.9V40.876H1057.99V26.1575H1126.49V2.00715L1023.24 2.00715V102.006ZM964.989 79.7185H928.506V62.0092H964.989C970.895 62.0092 974.51 64.8689 974.51 70.2998V71.4411C974.51 76.8719 970.908 79.7317 964.989 79.7317M964.128 40.0233H928.506V24.3079H964.128C969.319 24.3079 972.352 27.0233 972.352 31.7327V32.4411C972.352 37.1504 969.319 40.0102 964.128 40.0102M990.52 49.4421V48.0122C999.75 46.1494 1007.1 38.3048 1007.1 27.0102C1007.1 12.7246 995.711 2.00715 972.206 2.00715L879.775 2.00715C892.461 13.433 899.678 30.0011 899.678 50.7145V53.1414C899.678 73.9991 892.474 90.5672 879.775 101.993H968.75C997.009 101.993 1009.85 90.1343 1009.85 71.5722C1009.85 58.7165 1001.63 52.1444 990.533 49.4289M823.111 74.996H796.296V29.0041H823.111C837.532 29.0041 845.319 36.5732 845.319 49.1403V54.5712C845.319 67.1383 837.532 74.996 823.111 74.996ZM760.529 101.993H826.568C860.892 101.993 881.655 84.5591 881.655 53.1414V50.7145C881.655 19.2836 860.892 2.00715 826.568 2.00715H760.529V102.006V101.993ZM673.143 103.987H690.874C723.172 103.987 742.493 85.989 742.493 55.6994V2.00715H706.447V55.7125C706.447 69.0011 698.952 76.2816 685.975 76.2816H678.043C665.065 76.2816 657.57 69.0011 657.57 55.7125V2.00715L621.67 2.00715V55.7125C621.67 86.0021 640.845 104 673.156 104M549.288 76.5702H532.418C519.149 76.5702 510.356 69.1454 510.356 53.8628V50.1504C510.356 34.7236 519.149 27.4431 532.418 27.4431H549.288C562.557 27.4431 571.35 34.7236 571.35 50.1504V53.8628C571.35 69.1454 562.557 76.5702 549.288 76.5702ZM527.372 104H554.188C585.188 104 607.541 84.8608 607.541 53.1414V50.7145C607.541 19.1393 585.188 9.05215e-05 554.188 9.05991e-05L527.505 9.06658e-05C496.359 9.07438e-05 474.006 19.1393 474.006 50.7145V53.1414C474.006 84.8477 496.359 104 527.359 104M466.352 102.006V74.2877H407.371V2.00715H371.604V102.006H466.352ZM281.927 104H306.015C335.717 104 355.475 85.8578 357.779 62.5732L357.925 61.2877H321.442L321.151 62.5732C319.138 71.4279 311.484 76.5702 300.824 76.5702H286.986C274.154 76.5702 265.216 68.8568 265.216 53.5743V50.4259C265.216 35.1434 274.154 27.43 286.986 27.43H300.824C311.497 27.43 319.138 32.5722 321.151 41.4269L321.442 42.7125H357.925L357.779 41.4269C355.475 18.2867 336.432 9.11441e-05 306.015 9.12202e-05L282.219 9.12798e-05C251.364 9.1357e-05 228.866 19.1394 228.866 50.7145V53.1414C228.866 84.8477 251.219 104 281.927 104ZM138.011 102.006L169.011 102.006C161.079 89.8588 156.748 73.2907 156.748 52.0132C156.748 30.7357 161.079 14.2988 169.011 2.02027H138.011C133.535 15.4532 131.522 32.0213 131.522 52.0132C131.522 72.0051 133.535 88.5864 138.011 102.006ZM90.418 102.006H124.742C121.431 88.1535 120.266 71.5854 120.266 52.0132C120.266 32.4411 121.418 15.8729 124.742 2.02027L90.418 2.02027C93.7286 15.8729 94.8939 32.4411 94.8939 52.0132C94.8939 71.5854 93.7418 88.1535 90.418 102.006ZM46.1492 102.006H77.1493C81.6252 88.5732 83.638 72.0051 83.638 52.0132C83.638 32.0213 81.6252 15.4401 77.1493 2.02027H46.1492C54.0813 14.2988 58.4115 30.88 58.4115 52.0132C58.4115 73.1464 54.0813 89.8719 46.1492 102.006ZM2.50258e-07 102.006H32.5892C41.6733 90.2917 46.8643 73.7236 46.8643 52.0132C46.8643 30.3028 41.6733 13.879 32.5892 2.02027L0 2.02027C12.6861 12.5934 20.3268 29.1615 20.3268 52.0132C20.3268 74.8649 12.6861 91.4461 2.50258e-07 102.006ZM182.558 102.006H215.147C202.461 91.433 194.82 74.8649 194.82 52.0132C194.82 29.1615 202.461 12.5803 215.147 2.02027H182.558C173.473 13.879 168.282 30.4471 168.282 52.0132C168.282 73.5793 173.473 90.2917 182.558 102.006Z" fill="#8D52DA"/>
</svg>
